<svg id="Capa_1" enable-background="new 0 0 512 512" height="512" viewBox="0 0 512 512" width="512" xmlns="http://www.w3.org/2000/svg"><g><g><circle cx="254.647" cy="305.322" fill="#b2f0fb" r="119.489"/></g><g fill="#020288"><path d="m512 395.569v-303.014c0-5.522-4.478-10-10-10h-21.723v-32.192c0-5.522-4.478-10-10-10h-50.596c-5.522 0-10 4.478-10 10v32.191h-55.391v-32.191c0-5.522-4.478-10-10-10h-50.596c-5.522 0-10 4.478-10 10v32.191h-55.391v-32.191c0-5.522-4.478-10-10-10h-50.596c-5.522 0-10 4.478-10 10v32.191h-55.391v-32.191c0-5.522-4.478-10-10-10h-50.593c-5.522 0-10 4.478-10 10v32.191h-21.723c-5.522 0-10 4.478-10 10v369.082c0 5.522 4.478 10 10 10h492c5.522 0 10-4.478 10-10v-65.933c0-.044 0-.089 0-.134zm-82.318-335.206h30.596v22.191h-30.596zm-125.987 0h30.596v22.191h-30.596zm-125.986 0h30.596v22.191h-30.596zm-125.986 0h30.596v22.191h-30.596zm-31.723 42.192h472v36.453h-472zm0 56.453h472v226.642h-55.988c-5.522 0-10 4.478-10 10v55.987h-406.012zm457.857 246.642-31.846 31.846v-31.846zm-17.702 45.987 31.845-31.845v31.845z"/><path d="m270.202 297.231c-1.679-.593-3.273-1.163-4.784-1.707v-32.132c3.959 1.206 6.701 3.221 8.046 5.139 3.172 4.52 9.407 5.611 13.931 2.44 4.521-3.173 5.613-9.41 2.44-13.931-4.716-6.718-13.264-12.327-24.417-14.144v-2.112c0-5.522-4.478-10-10-10s-10 4.478-10 10v2.874c-1.519.337-3.061.74-4.627 1.211-12.548 3.779-22.02 15.968-23.034 29.64-1.001 13.502 6.188 25.233 19.23 31.384 1.851.873 4.747 2.077 8.431 3.514v38.48c-5.145-1.538-9.869-4.115-12.938-7.926-3.466-4.3-9.76-4.978-14.062-1.515-4.301 3.465-4.979 9.76-1.515 14.062 7.287 9.046 18.043 13.883 28.515 15.94v1.412c0 5.522 4.478 10 10 10s10-4.478 10-10v-.648c22.098-2.798 31.744-17.171 33.374-30.004 2.28-17.96-9.477-35.221-28.59-41.977zm-32.5-21.241c.369-4.973 3.6-9.711 7.716-11.544v23.31c-6.852-3.272-7.98-8.2-7.716-11.766zm41.249 60.698c-.795 6.265-5.657 10.607-13.533 12.259v-32.124c10.446 4.481 14.371 13.264 13.533 19.865z"/></g></g></svg>