<svg id="Capa_1" enable-background="new 0 0 512 512" height="512" viewBox="0 0 512 512" width="512" xmlns="http://www.w3.org/2000/svg"><g><g><path d="m489.213 484.916h-466.426c-6.139 0-11.116-4.977-11.116-11.116v-71.55c0-6.139 4.977-11.116 11.116-11.116h466.426c6.139 0 11.117 4.977 11.117 11.116v71.55c0 6.139-4.977 11.116-11.117 11.116z" fill="#ccf3e2"/><path d="m498.746 365.938-34.995-43.965h19.765c11.303 0 17.6-13.061 10.561-21.904l-41.766-52.471h17.648c8.729 0 13.591-10.086 8.155-16.915l-47.205-59.304c-3.541-4.449-10.3-4.449-13.841 0l-35.642 44.777-27.423-34.45c-3.373-4.238-9.812-4.238-13.185 0l-19.514 24.515c-.335-.607-.721-1.201-1.178-1.774l-55.013-69.113c-4.127-5.184-12.003-5.184-16.13 0l-55.013 69.113c-.452.568-.837 1.157-1.169 1.758l-19.502-24.5c-3.373-4.238-9.811-4.238-13.185 0l-28.481 35.78-36.7-46.106c-3.541-4.449-10.3-4.449-13.841 0l-47.205 59.304c-5.436 6.829-.573 16.915 8.155 16.915h17.649l-41.766 52.471c-7.039 8.843-.742 21.904 10.561 21.904h19.764l-34.995 43.965c-7.508 9.432-.791 23.363 11.264 23.363h126.987.005 31.536.005 147.991.005 29.441.005 126.987c12.056 0 18.773-13.931 11.265-23.363zm-184.691-111.625h6.376l-3.188 4.005zm76.267 0-7.966 10.007-7.966-10.007zm-83.298-30.153-8.485 10.66-8.485-10.66z" fill="#a1e8c3"/><g fill="#85adc2"><path d="m160.978 371.407c4.314-5.499 8.618-11.008 12.903-16.529 6.771-8.724 13.418-17.556 20.244-26.241h-62.111c9.529 14.338 19.208 28.58 28.964 42.77z"/><path d="m207.327 249.249h61.501c7.46 0 14.53 4.037 19.271 11.005l17.229 25.321c6.33 8.19.669 20.287-9.494 20.291h27.481c10.939 0 17.641-13.372 13.94-24.645 2.763 5.055 4.419 10.557 3.058 15.674h14.562c2.574-6.517 7.473-12.535 11.551-17.475 3.686-4.466 7.938-8.632 11.977-12.946v3.843l.465-.555h54.353c6.593 0 12.841 3.291 17.031 8.97l15.226 20.639c5.594 6.676.591 16.536-8.39 16.539h24.287c11.055 0 17.214-14.252 10.329-23.901l-31.687-44.411h9.942c8.729 0 13.591-10.086 8.155-16.915l-47.205-59.304c-3.541-4.449-10.3-4.449-13.841 0l-3.162 3.973 33.162 52.402c3.607 5.7-.489 13.138-7.233 13.138h-15.918v2.461h-34.598l-10.914 15.296v.706l-4.013-5.042h2.75c-1.949-2.572-3.633-5.332-4.975-8.285-5.838-12.851-1.899-24.439 6.617-33.192l-24.78-31.13c-3.373-4.238-9.812-4.238-13.185 0l-37.348 46.92-7.75-11.777h-76.57l-8.091 12.296-37.761-47.439c-3.373-4.238-9.811-4.238-13.185 0l-23.326 29.304c4.21 6.287 7.657 12.91 8.734 20.313.962 6.609-1.046 13.636-4.741 19.137-.855 1.273-5.415 9.332-5.415 9.332.029.468.116.946.29 1.441 2.002 5.698 6.742 10.042 10.92 14.147 4.899 4.812 9.993 9.49 14.408 14.766.728.87 1.506 1.802 2.265 2.782h7.87c5.265-7.136 36.208-43.679 36.208-43.679zm113.104 5.064-.031.04-.026-.04z"/><path d="m379.531 324.886c-1.307-.17-2.609-.354-3.898-.578-3.12-.542-6.526-1.357-9.724-2.615h-52.202c.087 1.73.433 3.51.962 5.28l-15.977-20.072h-86.928l-14.02 17.613v13.436l.597-.639h69.821c8.47 0 16.495 3.789 21.877 10.329l19.56 23.765c7.186 7.687.759 19.041-10.778 19.044h31.198c14.201 0 22.113-16.411 13.268-27.521l-5.207-6.542c5.449 4.448 11.228 8.517 17.087 12.384 7.892-14.754 15.965-29.409 24.364-43.884z"/><path d="m498.746 365.938-37.859-47.563h-73.797l-11.902 14.952v11.406l.507-.543h59.274c7.19 0 14.003 3.217 18.573 8.768l16.605 20.175c6.101 6.526.645 16.164-9.15 16.167h26.485c12.055.001 18.772-13.93 11.264-23.362z"/></g><path d="m134.057 19.463 8.289 23.307c.355.998 1.057 1.789 1.944 2.188l20.708 9.329c2.925 1.318 2.925 5.979 0 7.297l-20.708 9.33c-.887.399-1.589 1.19-1.944 2.188l-8.289 23.307c-1.171 3.293-5.312 3.293-6.483 0l-8.289-23.307c-.355-.998-1.057-1.789-1.944-2.188l-20.707-9.33c-2.925-1.318-2.925-5.979 0-7.297l20.707-9.329c.887-.4 1.589-1.19 1.944-2.188l8.289-23.307c1.171-3.293 5.312-3.293 6.483 0z" fill="#ccf3e2"/><path d="m469.807 60.587 6.149 17.289c.263.74.784 1.327 1.442 1.623l15.36 6.92c2.17.978 2.17 4.435 0 5.413l-15.36 6.92c-.658.296-1.179.883-1.442 1.623l-6.149 17.289c-.869 2.442-3.941 2.442-4.809 0l-6.149-17.289c-.263-.74-.784-1.327-1.442-1.623l-15.361-6.92c-2.17-.978-2.17-4.435 0-5.413l15.361-6.92c.658-.296 1.179-.883 1.442-1.623l6.149-17.289c.869-2.443 3.941-2.443 4.809 0z" fill="#ccf3e2"/><ellipse cx="361.257" cy="42.088" fill="#a1e8c3" rx="18.099" ry="18.099" transform="matrix(.383 -.924 .924 .383 184.126 359.74)"/><circle cx="46.002" cy="99.281" fill="#a1e8c3" r="7.808"/></g><g><path d="m509.539 385.539c4.12-8.545 3.009-18.464-2.899-25.885l-21.993-27.629c8.673-.405 16.312-5.417 20.115-13.305 3.969-8.231 2.899-17.786-2.792-24.935l-28.918-36.329c6.657-.993 12.388-5.158 15.384-11.372 3.451-7.158 2.521-15.468-2.428-21.686l-47.205-59.304c-3.613-4.54-9.013-7.143-14.815-7.143s-11.202 2.604-14.815 7.143l-27.747 34.859-19.527-24.532c-3.534-4.44-8.815-6.986-14.489-6.986s-10.954 2.547-14.487 6.986l.001-.001-11.502 14.45-48.414-60.821c-3.893-4.89-9.71-7.694-15.96-7.694s-12.068 2.804-15.96 7.694l-48.403 60.808-11.491-14.436c-3.534-4.439-8.814-6.986-14.488-6.986s-10.954 2.546-14.488 6.986h.001l-20.586 25.862-28.805-36.188c-3.613-4.54-9.013-7.143-14.815-7.143s-11.202 2.604-14.815 7.143l-47.205 59.304c-4.949 6.217-5.88 14.526-2.429 21.685 2.996 6.214 8.727 10.379 15.384 11.372l-28.918 36.329c-5.691 7.149-6.761 16.704-2.793 24.935 3.803 7.889 11.443 12.9 20.115 13.305l-21.992 27.628c-5.908 7.421-7.019 17.34-2.899 25.885.81 1.679 1.792 3.228 2.911 4.642-2.384 3.429-3.792 7.585-3.792 12.069v71.551c0 11.693 9.514 21.207 21.207 21.207h466.426c11.693 0 21.207-9.513 21.207-21.207v-71.551c0-4.484-1.408-8.64-3.792-12.069 1.12-1.413 2.102-2.962 2.911-4.641zm-23.358-79.186c1.16 1.457.75 2.882.404 3.602-.347.72-1.207 1.928-3.069 1.928h-119.056c-1.861 0-2.722-1.208-3.069-1.928s-.756-2.145.403-3.601l38.737-48.665h46.913zm-108.423-69.386 46.23-58.08 46.231 58.079c.103.129.131.164.04.353-.091.188-.135.188-.3.188h-91.941c-.165 0-.209 0-.3-.188s-.063-.222.04-.352zm-26.674 50.437c-.939-2.978-2.424-5.82-4.461-8.378l-11.639-14.622h34.409zm-167.822 4.19 45.645-57.344h56.282l45.645 57.344c1.99 2.501 1.13 5.002.667 5.961s-1.884 3.191-5.08 3.191h-138.747c-3.197 0-4.618-2.231-5.08-3.191-.462-.959-1.323-3.46.668-5.961zm-4.887 43.66-13.566 17.043-13.566-17.043zm-8.195-20.181c.074-.253.15-.506.216-.76.296.268.614.507.922.76zm7.639 53.285 37.755-47.431h82.948l37.754 47.431c2.361 2.966 1.34 5.932.792 7.069s-2.233 3.783-6.024 3.783h-147.992c-3.791 0-5.476-2.646-6.024-3.784-.549-1.137-1.569-4.102.791-7.068zm157.901-33.104h25.037l-12.519 15.727zm-5.066-113.584c2.065-4.282 2.675-8.944 1.913-13.396l14.844-18.648 21.117 26.53-6.56 8.242c-4.526 5.686-5.679 13.118-3.207 19.822l-39.842-.001-7.482-9.4.501-.629c8.072-.464 15.166-5.159 18.716-12.52zm-128.79-10.939 55.013-69.112c.079-.099.262-.099.341 0l55.013 69.112c.534.671.616 1.403.243 2.175-.372.772-.995 1.164-1.853 1.164h-107.147c-.857 0-1.481-.392-1.853-1.164-.372-.773-.291-1.504.243-2.175zm-35.158-21.105 14.826 18.627c-.768 4.458-.158 9.127 1.91 13.417 3.69 7.653 11.21 12.438 19.68 12.568l-7.946 9.983-41.936-.001c2.472-6.704 1.319-14.136-3.207-19.822l-5.503-6.913zm-22.114 74.777h34.519l-11.639 14.622c-2.48 3.115-4.144 6.651-4.992 10.343l-18.88-23.718zm-102.81-27.436 46.23-58.08 46.231 58.079c.103.129.131.164.039.353-.091.188-.135.188-.3.188h-91.94c-.165 0-.209 0-.3-.188s-.063-.223.04-.352zm-16.366 72.988c-.347-.72-.756-2.145.403-3.601l38.737-48.665h46.912l38.737 48.664c1.16 1.457.75 2.882.404 3.602-.347.72-1.207 1.928-3.069 1.928h-119.055c-1.862-.001-2.722-1.208-3.069-1.928zm-4.776 66.819c-.439-.91-.956-2.711.51-4.552l31.966-40.158h69.794l31.966 40.158c1.465 1.841.948 3.642.51 4.552-.439.91-1.526 2.437-3.879 2.437h-126.988c-2.353-.001-3.441-1.527-3.879-2.437zm469.599 97.026c0 .565-.46 1.025-1.026 1.025h-466.426c-.566 0-1.026-.459-1.026-1.025v-71.551c0-.565.46-1.025 1.026-1.025h466.426c.566 0 1.026.46 1.026 1.025zm1.121-97.026c-.438.91-1.526 2.436-3.879 2.436h-126.986c-2.353 0-3.441-1.526-3.879-2.437-.438-.91-.956-2.711.51-4.552l31.966-40.158h69.794l31.966 40.158c1.464 1.842.947 3.643.508 4.553z" fill="#3c122c"/><path d="m156.327 442.888c-10.857 0-21.748-.007-33.056-.022-5.573-.007-10.085-4.531-10.078-10.104.007-5.569 4.524-10.078 10.09-10.078h.013c22.599.03 43.527.03 65.863 0h.014c5.567 0 10.083 4.509 10.09 10.078.007 5.573-4.504 10.097-10.077 10.104-11.177.014-22.002.022-32.859.022z" fill="#fff"/><path d="m67.555 442.887c-3.904 0-7.813-.007-12.035-.022-5.573-.019-10.075-4.553-10.056-10.125.019-5.561 4.533-10.056 10.09-10.056h.035c8.396.029 15.545.029 23.903 0h.035c5.557 0 10.071 4.495 10.09 10.056.019 5.573-4.483 10.107-10.056 10.126-4.203.014-8.102.021-12.006.021z" fill="#fff"/><g fill="#3c122c"><path d="m222.238 292.046c-3.344 0-6.054-2.711-6.054-6.054v-11.433c0-3.344 2.711-6.055 6.054-6.055 3.344 0 6.054 2.711 6.054 6.055v11.433c.001 3.343-2.71 6.054-6.054 6.054z"/><path d="m251.943 292.046c-3.343 0-6.054-2.711-6.054-6.054v-11.433c0-3.344 2.711-6.055 6.054-6.055 3.344 0 6.055 2.711 6.055 6.055v11.433c0 3.343-2.711 6.054-6.055 6.054z"/><path d="m406.836 303.079c-3.344 0-6.054-2.711-6.054-6.055v-11.433c0-3.344 2.711-6.054 6.054-6.054 3.344 0 6.055 2.711 6.055 6.054v11.433c-.001 3.345-2.712 6.055-6.055 6.055z"/></g></g></g></svg>