<svg id="Capa_1" enable-background="new 0 0 512 512" height="512" viewBox="0 0 512 512" width="512" xmlns="http://www.w3.org/2000/svg"><g><g><circle cx="256" cy="416.141" fill="#e2c4ff" r="95.859"/></g><g fill="#020288"><path d="m270.17 407.897c-1.212-.428-2.374-.842-3.486-1.242v-26.12c2.441.98 4.159 2.333 5.073 3.636 3.173 4.521 9.411 5.612 13.93 2.439 4.521-3.173 5.612-9.409 2.439-13.93-4.2-5.984-11.692-11.015-21.442-12.839v-.922c0-5.522-4.478-10-10-10s-10 4.478-10 10v1.646c-1.086.26-2.185.556-3.296.891-11.564 3.483-20.293 14.702-21.227 27.282-.924 12.457 5.692 23.273 17.698 28.935 1.535.724 3.872 1.702 6.824 2.863v31.797c-3.777-1.327-7.17-3.353-9.456-6.191-3.466-4.301-9.76-4.979-14.062-1.515-4.301 3.465-4.979 9.76-1.515 14.062 6.433 7.986 15.809 12.372 25.032 14.342v.332c0 5.522 4.478 10 10 10 5.386 0 9.777-4.259 9.991-9.593 16.277-2.473 27.756-12.997 29.59-27.442 2.091-16.457-8.639-32.261-26.093-38.431zm-28.064-17.679c.248-3.338 2.078-6.54 4.577-8.36v16.8c-3.301-2.065-4.839-4.897-4.577-8.44zm34.318 53.591c-.593 4.669-4.068 8.023-9.74 9.572v-25.256c7.539 3.901 10.387 10.59 9.74 15.684z"/><path d="m501.192 496.731-225.336-363.551c-1.823-2.941-5.039-4.731-8.5-4.731h-1.356v-36.34h76.497c3.431 0 6.622-1.759 8.454-4.659s2.05-6.538.576-9.636l-15.104-31.759 15.104-31.76c1.474-3.098 1.256-6.735-.576-9.636s-5.023-4.659-8.454-4.659h-86.497c-5.522 0-10 4.478-10 10v118.448h-1.356c-3.461 0-6.677 1.79-8.5 4.731l-225.336 363.552c-1.911 3.084-2.002 6.962-.237 10.133 1.765 3.17 5.108 5.136 8.737 5.136h473.385c3.629 0 6.973-1.966 8.737-5.136 1.764-3.171 1.674-7.049-.238-10.133zm-235.192-476.731h60.668l-10.349 21.76c-1.293 2.718-1.293 5.872 0 8.59l10.349 21.759h-60.668zm-15.79 128.448h11.58l54.268 87.555-22.087 31.943-41.187-47.399c-3.15-3.623-8.431-4.5-12.581-2.082l-24.091 14.029-9.33-13.982zm-212.939 343.552 157.934-254.807 9.494 14.227c2.935 4.396 8.783 5.752 13.351 3.091l25.067-14.598 44.206 50.874c1.905 2.191 4.662 3.44 7.548 3.44.184 0 .368-.005.553-.016 3.084-.17 5.917-1.756 7.674-4.297l24.456-35.368 147.175 237.454z"/></g></g></svg>