<svg id="Capa_1" enable-background="new 0 0 512 512" height="512" viewBox="0 0 512 512" width="512" xmlns="http://www.w3.org/2000/svg"><g><g><circle cx="221.874" cy="221.875" fill="#b2f0fb" r="119.489"/></g><g fill="#020288"><path d="m237.43 213.783c-1.679-.593-3.273-1.163-4.784-1.707v-32.132c3.958 1.206 6.699 3.221 8.045 5.138 3.172 4.521 9.41 5.614 13.93 2.441 4.521-3.172 5.614-9.409 2.441-13.93-4.715-6.719-13.262-12.327-24.416-14.143v-2.113c0-5.523-4.478-10-10-10s-10 4.477-10 10v2.874c-1.519.337-3.063.739-4.629 1.211-12.547 3.78-22.019 15.969-23.032 29.641-1.001 13.501 6.188 25.232 19.229 31.382 1.85.872 4.747 2.077 8.432 3.514v38.477c-5.145-1.537-9.87-4.112-12.939-7.923-3.466-4.303-9.76-4.979-14.062-1.515-4.301 3.464-4.979 9.76-1.515 14.061 7.287 9.046 18.043 13.884 28.516 15.94v1.412c0 5.523 4.478 10 10 10s10-4.477 10-10v-.648c22.097-2.797 31.743-17.171 33.373-30.002 2.281-17.959-9.476-35.221-28.589-41.978zm-32.5-21.241c.369-4.973 3.599-9.712 7.716-11.545v23.312c-6.853-3.272-7.981-8.2-7.716-11.767zm41.248 60.699c-.795 6.264-5.656 10.605-13.532 12.257v-32.124c10.445 4.482 14.371 13.265 13.532 19.867z"/><path d="m347.649 96.098c-33.594-33.596-78.262-52.098-125.775-52.098-47.512 0-92.18 18.502-125.776 52.098s-52.098 78.264-52.098 125.776 18.502 92.18 52.098 125.776c33.597 33.596 78.266 52.098 125.776 52.098 47.512 0 92.181-18.502 125.776-52.098 33.596-33.596 52.098-78.264 52.098-125.776s-18.502-92.18-52.099-125.776zm-14.141 237.41c-29.818 29.818-69.464 46.24-111.634 46.24-42.169 0-81.814-16.422-111.634-46.24-29.818-29.819-46.24-69.464-46.24-111.634 0-42.169 16.422-81.815 46.24-111.633 29.82-29.819 69.465-46.241 111.634-46.241 42.17 0 81.815 16.421 111.633 46.24 29.819 29.818 46.241 69.464 46.241 111.634s-16.422 81.815-46.24 111.634z"/><path d="m501.253 449.36-65.343-65.342c-1.876-1.875-4.419-2.929-7.071-2.929s-5.195 1.054-7.071 2.929l-11.803 11.804-24.286-24.285c37.522-40.982 58.07-93.743 58.07-149.662 0-59.265-23.079-114.982-64.985-156.888-41.908-41.908-97.625-64.987-156.89-64.987s-114.981 23.079-156.889 64.985c-41.906 41.907-64.985 97.624-64.985 156.889s23.079 114.982 64.985 156.889c41.907 41.906 97.624 64.985 156.889 64.985 55.919 0 108.681-20.547 149.662-58.069l24.286 24.286-11.804 11.804c-3.905 3.905-3.905 10.237 0 14.142l65.343 65.342c6.931 6.931 16.145 10.748 25.946 10.748s19.016-3.817 25.946-10.747c6.931-6.931 10.747-16.145 10.747-25.947s-3.816-19.016-10.747-25.947zm-422.125-84.739c-38.129-38.129-59.128-88.825-59.128-142.747s20.999-104.617 59.128-142.746 88.824-59.128 142.746-59.128c53.923 0 104.617 20.999 142.746 59.128s59.128 88.824 59.128 142.746-20.999 104.618-59.128 142.747c-38.129 38.128-88.823 59.127-142.746 59.127-53.922 0-104.617-20.998-142.746-59.127zm407.982 122.489c-3.152 3.153-7.345 4.89-11.804 4.89s-8.651-1.736-11.804-4.89l-58.271-58.271 23.607-23.608 58.271 58.271c3.153 3.153 4.89 7.345 4.89 11.804.001 4.46-1.735 8.652-4.889 11.804z"/></g></g></svg>